<svg xmlns="http://www.w3.org/2000/svg" version="1.1" xmlns:xlink="http://www.w3.org/1999/xlink" xmlns:svgjs="http://svgjs.dev/svgjs" viewBox="0 0 1920 1080"><rect width="1920" height="1080" fill="#96d35f"></rect><g transform="matrix(1.15,0,0,1.15,-137.8564933776854,-81)"><path d="M0,-1080C1.9562393593008736,-1000.1685167336293,18.302393368083976,-775.7337484126066,11.737436155805241,-601.0111004017759C5.172478943526507,-426.2884523909453,-37.609346999660445,-215.35292094815293,-39.38974327367241,-31.664111935016308C-41.17013954768437,152.0246970781203,8.08520045580142,327.9172153139398,1.0550585117334776,501.1217536770437C-5.975083432334465,674.3262920401477,-76.84757160025961,829.4123182123885,-81.57059493808006,1007.5631182436073C-86.29361827590051,1185.713918274826,-40.878180671535915,1377.9537402382905,-27.283081515189238,1570.026553864356C-13.68798235884256,1762.0993674904214,-4.54718025253154,2061.671092310726,0,2160L 1920 2160 L 1920 -1080 Z" fill="url(&quot;#SvgjsLinearGradient1090&quot;)"></path><path d="M213.33333333333331,-1080C211.41178120407994,-972.9421047714043,199.22965921846836,-651.9811641350299,201.80402055781315,-437.6526286284259C204.37838189715794,-223.32409312182187,230.8372995817446,-25.917589133612722,228.77950136940206,205.971213039624C226.72170315705952,437.86001521286073,200.23465809982588,726.4910999387728,189.4572312837579,953.6801844109943C178.6798044676899,1180.869268883216,160.13559013139832,1368.0524172747855,164.11494047299422,1569.1057198729532C168.09429081459012,1770.1590224711208,205.13026785661015,2061.5176199788257,213.33333333333331,2160L 1920 2160 L 1920 -1080 Z" fill="url(&quot;#SvgjsLinearGradient1091&quot;)"></path><path d="M426.66666666666663,-1080C434.26797738762156,-1022.8833152037064,484.4889375261218,-866.267599284606,472.2745309923962,-737.2998912222386C460.0601244586706,-608.3321831598711,346.8656169869597,-462.4641531886489,353.38022746431307,-306.1937516257953C359.8948379416664,-149.92335006294175,509.7136373547228,65.51435965366912,511.36219385651634,200.32251815488274C513.0107503583099,335.1306766560964,369.6273941386307,375.03472971289136,363.2715664750744,502.6551993814865C356.9157388115181,630.2756690500817,464.7834222284063,817.6649940621487,473.22722787517864,966.0453361664537C481.67103352195096,1114.4256782707587,421.8940073280813,1256.6289412821684,413.9344003557084,1392.9372520073161C405.97479338333557,1529.245562732464,423.3475416557818,1656.0514091852256,425.4695860409415,1783.8952005173396C427.59163042610123,1911.7389918494537,426.4671532290458,2097.31586675289,426.66666666666663,2160L 1920 2160 L 1920 -1080 Z" fill="url(&quot;#SvgjsLinearGradient1092&quot;)"></path><path d="M640,-1080C631.0182396289562,-950.9072706884665,584.418457271121,-572.4130402002733,586.1094377737368,-305.44362413079887C587.8004182763525,-38.474208061324475,628.304784743578,249.58798760885162,650.1458830156943,521.8164964168465C671.9869812878105,794.0450052248414,718.8470079090497,1054.8968447866448,717.156027406434,1327.9274287171704C715.4650469038182,1600.958012647696,652.8593379010723,2021.3212381195285,640,2160L 1920 2160 L 1920 -1080 Z" fill="url(&quot;#SvgjsLinearGradient1093&quot;)"></path><path d="M853.3333333333333,-1080C860.3997988825146,-974.6218517091911,889.0182856064926,-668.867740606119,895.7321266284209,-447.73111025514635C902.4459676503493,-226.59447990417365,889.9332248808856,34.37741693512757,893.6163794649038,246.81978210583617C897.299534048922,459.26214727654474,932.9279922125065,611.9104825602071,917.8310541325304,826.9230807691051C902.7341160525543,1041.9356789780031,813.784371118247,1314.7158848207416,803.0347509850475,1536.895371359224C792.285130851848,1759.0748578977066,844.9502362752856,2056.1492285598706,853.3333333333333,2160L 1920 2160 L 1920 -1080 Z" fill="url(&quot;#SvgjsLinearGradient1094&quot;)"></path><path d="M1066.6666666666667,-1080C1070.8400097984297,-1003.0474255175275,1075.248323703779,-783.5435958192876,1091.706725457245,-618.2845531051646C1108.165127210711,-453.0255103910416,1182.6896126470017,-242.81192620470628,1165.4170771874628,-88.44574371526213C1148.144541727924,65.92043877418203,1021.0675792543547,169.48879680162491,988.0715127000117,307.91254183150033C955.0754461456687,446.33628686137575,961.2426190255712,570.9200121961087,967.440677861405,742.0967264639904C973.6387366972388,913.2734407318721,1022.6778093186819,1183.770266647892,1025.259865715014,1334.9728274387905C1027.8419221113463,1486.1753882296891,976.0318827474562,1511.8075624491803,982.9330162393983,1649.3120912093818C989.8341497313404,1786.8166199695834,1052.711058262122,2074.885348534897,1066.6666666666667,2160L 1920 2160 L 1920 -1080 Z" fill="url(&quot;#SvgjsLinearGradient1095&quot;)"></path><path d="M1280,-1080C1265.1935380592768,-948.6445563434594,1191.7927857520838,-559.4451108178177,1191.161228355661,-291.867338060756C1190.5296709592383,-24.289565303694303,1270.1779999418593,257.5030528041828,1276.210655621464,525.4666365423703C1282.2433113010686,793.4302202805579,1226.725605036866,1043.4919371254307,1227.3571624332887,1315.914164368369C1227.9887198297115,1588.3363916113074,1271.2261937388814,2019.3190273947282,1280,2160L 1920 2160 L 1920 -1080 Z" fill="url(&quot;#SvgjsLinearGradient1096&quot;)"></path><path d="M1493.3333333333333,-1080C1492.9860183826763,-986.06219402499,1496.3682972053318,-744.4922800064193,1491.2494436293912,-516.3731641499406C1486.1305900534505,-288.254048293462,1446.3175811114804,45.92580036218206,1462.6202118776891,288.7146951388716C1478.9228426438979,531.5035899155612,1589.8991633397313,720.4313099583977,1589.0652282266433,940.3602045101967C1588.2312931135552,1160.2890990619958,1473.571917014713,1405.014763201365,1457.6166011991613,1608.2880624496656C1441.6612853836095,1811.5613616979663,1487.3805446443046,2068.0480104082776,1493.3333333333333,2160L 1920 2160 L 1920 -1080 Z" fill="url(&quot;#SvgjsLinearGradient1097&quot;)"></path><path d="M1706.6666666666665,-1080C1693.3257384074952,-1007.6239265423604,1633.5984298911537,-787.2860539842161,1626.6210971116388,-645.7435592541627C1619.643764332124,-504.20106452410937,1642.1726397848533,-377.6460948925105,1664.8026699895775,-230.74503161968005C1687.4327001943016,-83.8439683468496,1753.0212526704063,80.67629387434397,1762.4012783399837,235.66282038281986C1771.7813040095612,390.64934689129575,1742.6525392890999,546.0343520497324,1721.0828240070418,699.1741274311753C1699.5131087249838,852.3139028126182,1646.3417334177693,995.9547754706248,1632.982986647636,1154.5014726714771C1619.6242398775025,1313.0481698723295,1628.6497300497363,1482.871222748202,1640.9303433862412,1650.4543106362892C1653.2109567227462,1818.0373985243764,1695.7106127865957,2075.0757184393815,1706.6666666666665,2160L 1920 2160 L 1920 -1080 Z" fill="url(&quot;#SvgjsLinearGradient1098&quot;)"></path></g><defs><linearGradient x1="0.1" y1="0" x2="0" y2="1" id="SvgjsLinearGradient1090"><stop stop-color="#96d35f" offset="0"></stop><stop stop-color="#a9d35f" offset="0"></stop></linearGradient><linearGradient x1="0.1" y1="0" x2="0" y2="1" id="SvgjsLinearGradient1091"><stop stop-color="#9fd76c" offset="0"></stop><stop stop-color="#b1d76c" offset="0.1111111111111111"></stop></linearGradient><linearGradient x1="0.1" y1="0" x2="0" y2="1" id="SvgjsLinearGradient1092"><stop stop-color="#a7da79" offset="0"></stop><stop stop-color="#b7da79" offset="0.2222222222222222"></stop></linearGradient><linearGradient x1="0.1" y1="0" x2="0" y2="1" id="SvgjsLinearGradient1093"><stop stop-color="#b0de86" offset="0"></stop><stop stop-color="#bfde86" offset="0.3333333333333333"></stop></linearGradient><linearGradient x1="0.1" y1="0" x2="0" y2="1" id="SvgjsLinearGradient1094"><stop stop-color="#b9e194" offset="0"></stop><stop stop-color="#c6e194" offset="0.4444444444444444"></stop></linearGradient><linearGradient x1="0.1" y1="0" x2="0" y2="1" id="SvgjsLinearGradient1095"><stop stop-color="#c1e5a1" offset="0"></stop><stop stop-color="#cce5a1" offset="0.5555555555555556"></stop></linearGradient><linearGradient x1="0.1" y1="0" x2="0" y2="1" id="SvgjsLinearGradient1096"><stop stop-color="#cae9ae" offset="0"></stop><stop stop-color="#d4e9ae" offset="0.6666666666666666"></stop></linearGradient><linearGradient x1="0.1" y1="0" x2="0" y2="1" id="SvgjsLinearGradient1097"><stop stop-color="#d2ecbb" offset="0"></stop><stop stop-color="#daecbb" offset="0.7777777777777778"></stop></linearGradient><linearGradient x1="0.1" y1="0" x2="0" y2="1" id="SvgjsLinearGradient1098"><stop stop-color="#dbf0c8" offset="0"></stop><stop stop-color="#e2f0c8" offset="0.8888888888888888"></stop></linearGradient></defs></svg>